{
    "asset" : {
        "copyright" : "MIT",
        "generator" : "Khronos glTF Blender I/O v0.9.36",
        "version" : "2.0"
    },
    "scene" : 0,
    "scenes" : [
        {
            "name" : "Scene",
            "nodes" : [
                0,
                1
            ]
        }
    ],
    "nodes" : [
        {
            "mesh" : 0,
            "name" : "Robot"
        },
        {
            "mesh" : 1,
            "name" : "Drive",
            "rotation" : [
                0.5408596396446228,
                -0.45548972487449646,
                -0.4554896950721741,
                0.540859580039978
            ]
        }
    ],
    "materials" : [
        {
            "doubleSided" : true,
            "name" : "Material",
            "pbrMetallicRoughness" : {
                "baseColorFactor" : [
                    0.3588409125804901,
                    0.3191148638725281,
                    0.21586328744888306,
                    1
                ],
                "metallicFactor" : 0.4933333396911621,
                "roughnessFactor" : 0.4000000059604645
            }
        }
    ],
    "meshes" : [
        {
            "name" : "Cube",
            "primitives" : [
                {
                    "attributes" : {
                        "POSITION" : 0,
                        "NORMAL" : 1,
                        "TEXCOORD_0" : 2
                    },
                    "indices" : 3,
                    "material" : 0
                }
            ]
        },
        {
            "name" : "Cylinder",
            "primitives" : [
                {
                    "attributes" : {
                        "POSITION" : 4,
                        "NORMAL" : 5,
                        "TEXCOORD_0" : 6
                    },
                    "indices" : 7,
                    "material" : 0
                }
            ]
        }
    ],
    "accessors" : [
        {
            "bufferView" : 0,
            "componentType" : 5126,
            "count" : 114,
            "max" : [
                1.0389444828033447,
                0.8827784657478333,
                1
            ],
            "min" : [
                -0.9610555171966553,
                0.09144968539476395,
                -1
            ],
            "type" : "VEC3"
        },
        {
            "bufferView" : 1,
            "componentType" : 5126,
            "count" : 114,
            "type" : "VEC3"
        },
        {
            "bufferView" : 2,
            "componentType" : 5126,
            "count" : 114,
            "type" : "VEC2"
        },
        {
            "bufferView" : 3,
            "componentType" : 5123,
            "count" : 162,
            "type" : "SCALAR"
        },
        {
            "bufferView" : 4,
            "componentType" : 5126,
            "count" : 240,
            "max" : [
                0.06793015450239182,
                1.1581556797027588,
                0.631864607334137
            ],
            "min" : [
                -0.41116535663604736,
                -1.1581556797027588,
                -0.5335349440574646
            ],
            "type" : "VEC3"
        },
        {
            "bufferView" : 5,
            "componentType" : 5126,
            "count" : 240,
            "type" : "VEC3"
        },
        {
            "bufferView" : 6,
            "componentType" : 5126,
            "count" : 240,
            "type" : "VEC2"
        },
        {
            "bufferView" : 7,
            "componentType" : 5123,
            "count" : 408,
            "type" : "SCALAR"
        }
    ],
    "bufferViews" : [
        {
            "buffer" : 0,
            "byteLength" : 1368,
            "byteOffset" : 0
        },
        {
            "buffer" : 0,
            "byteLength" : 1368,
            "byteOffset" : 1368
        },
        {
            "buffer" : 0,
            "byteLength" : 912,
            "byteOffset" : 2736
        },
        {
            "buffer" : 0,
            "byteLength" : 324,
            "byteOffset" : 3648
        },
        {
            "buffer" : 0,
            "byteLength" : 2880,
            "byteOffset" : 3972
        },
        {
            "buffer" : 0,
            "byteLength" : 2880,
            "byteOffset" : 6852
        },
        {
            "buffer" : 0,
            "byteLength" : 1920,
            "byteOffset" : 9732
        },
        {
            "buffer" : 0,
            "byteLength" : 816,
            "byteOffset" : 11652
        }
    ],
    "buffers" : [
        {
            "byteLength" : 12468,
            "uri" : "data:application/octet-stream;base64,"
        }
    ]
}
